<?xml version="1.0" encoding="UTF-8" standalone="no"?>
<svg
   xmlns:dc="http://purl.org/dc/elements/1.1/"
   xmlns:cc="http://creativecommons.org/ns#"
   xmlns:rdf="http://www.w3.org/1999/02/22-rdf-syntax-ns#"
   xmlns:svg="http://www.w3.org/2000/svg"
   xmlns="http://www.w3.org/2000/svg"
   viewBox="0 0 85.333336 69.333336"
   height="69.333336"
   width="85.333336"
   xml:space="preserve"
   id="svg2"
   version="1.1"><metadata
     id="metadata8"><rdf:RDF><cc:Work
         rdf:about=""><dc:format>image/svg+xml</dc:format><dc:type
           rdf:resource="http://purl.org/dc/dcmitype/StillImage" /></cc:Work></rdf:RDF></metadata><defs
     id="defs6"><clipPath
       id="clipPath18"
       clipPathUnits="userSpaceOnUse"><path
         id="path16"
         d="M 0,52 H 64 V 0 H 0 Z" /></clipPath></defs><g
     transform="matrix(1.3333333,0,0,-1.3333333,0,69.333333)"
     id="g10"><g
       id="g12"><g
         clip-path="url(#clipPath18)"
         id="g14"><g
           transform="translate(18,44)"
           id="g20"><path
             id="path22"
             style="fill:#373535;fill-opacity:1;fill-rule:nonzero;stroke:none"
             d="m 0,0 h 44 c 1.105,0 2,0.896 2,2 0,1.105 -0.895,2 -2,2 H 0 C -1.104,4 -2,3.105 -2,2 -2,0.896 -1.104,0 0,0" /></g><g
           transform="translate(62,28)"
           id="g24"><path
             id="path26"
             style="fill:#373535;fill-opacity:1;fill-rule:nonzero;stroke:none"
             d="m 0,0 h -44 c -1.104,0 -2,-0.895 -2,-2 0,-1.104 0.896,-2 2,-2 H 0 c 1.105,0 2,0.896 2,2 0,1.105 -0.895,2 -2,2" /></g><g
           transform="translate(62,8)"
           id="g28"><path
             id="path30"
             style="fill:#373535;fill-opacity:1;fill-rule:nonzero;stroke:none"
             d="m 0,0 h -44 c -1.104,0 -2,-0.895 -2,-2 0,-1.104 0.896,-2 2,-2 H 0 c 1.105,0 2,0.896 2,2 0,1.105 -0.895,2 -2,2" /></g><path
           id="path32"
           style="fill:#373535;fill-opacity:1;fill-rule:nonzero;stroke:none"
           d="M 8,24 H 4 v 4 h 4 z m 2,8 H 2 C 0.896,32 0,31.105 0,30 v -8 c 0,-1.104 0.896,-2 2,-2 h 8 c 1.105,0 2,0.896 2,2 v 8 c 0,1.105 -0.895,2 -2,2" /><path
           id="path34"
           style="fill:#373535;fill-opacity:1;fill-rule:nonzero;stroke:none"
           d="M 8,44 H 4 v 4 h 4 z m 2,8 H 2 C 0.896,52 0,51.105 0,50 v -8 c 0,-1.104 0.896,-2 2,-2 h 8 c 1.105,0 2,0.896 2,2 v 8 c 0,1.105 -0.895,2 -2,2" /><path
           id="path36"
           style="fill:#373535;fill-opacity:1;fill-rule:nonzero;stroke:none"
           d="M 8,4 H 4 v 4 h 4 z m 2,8 H 2 C 0.896,12 0,11.105 0,10 V 2 C 0,0.895 0.896,0 2,0 h 8 c 1.105,0 2,0.895 2,2 v 8 c 0,1.105 -0.895,2 -2,2" /></g></g></g></svg>