<svg display="none">
    <defs>
        <symbol id="icon1">
            <?xml version="1.0" encoding="UTF-8" standalone="no"?>
            <svg
            xmlns:dc="http://purl.org/dc/elements/1.1/"
            xmlns:cc="http://creativecommons.org/ns#"
            xmlns:rdf="http://www.w3.org/1999/02/22-rdf-syntax-ns#"
            xmlns:svg="http://www.w3.org/2000/svg"
            xmlns="http://www.w3.org/2000/svg"
            viewBox="0 0 85.333336 69.333336"
            height="69.333336"
            width="85.333336"
            xml:space="preserve"
            id="svg2"
            version="1.1"><metadata
                id="metadata8"><rdf:RDF><cc:Work
                    rdf:about=""><dc:format>image/svg+xml</dc:format><dc:type
                    rdf:resource="http://purl.org/dc/dcmitype/StillImage" /></cc:Work></rdf:RDF></metadata><defs
                id="defs6"><clipPath
                id="clipPath18"
                clipPathUnits="userSpaceOnUse"><path
                    id="path16"
                    d="M 0,52 H 64 V 0 H 0 Z" /></clipPath></defs><g
                transform="matrix(1.3333333,0,0,-1.3333333,0,69.333333)"
                id="g10"><g
                id="g12"><g
                    clip-path="url(#clipPath18)"
                    id="g14"><g
                    transform="translate(18,44)"
                    id="g20"><path
                        id="path22"
                        style="fill:#373535;fill-opacity:1;fill-rule:nonzero;stroke:none"
                        d="m 0,0 h 44 c 1.105,0 2,0.896 2,2 0,1.105 -0.895,2 -2,2 H 0 C -1.104,4 -2,3.105 -2,2 -2,0.896 -1.104,0 0,0" /></g><g
                    transform="translate(62,28)"
                    id="g24"><path
                        id="path26"
                        style="fill:#373535;fill-opacity:1;fill-rule:nonzero;stroke:none"
                        d="m 0,0 h -44 c -1.104,0 -2,-0.895 -2,-2 0,-1.104 0.896,-2 2,-2 H 0 c 1.105,0 2,0.896 2,2 0,1.105 -0.895,2 -2,2" /></g><g
                    transform="translate(62,8)"
                    id="g28"><path
                        id="path30"
                        style="fill:#373535;fill-opacity:1;fill-rule:nonzero;stroke:none"
                        d="m 0,0 h -44 c -1.104,0 -2,-0.895 -2,-2 0,-1.104 0.896,-2 2,-2 H 0 c 1.105,0 2,0.896 2,2 0,1.105 -0.895,2 -2,2" /></g><path
                    id="path32"
                    style="fill:#373535;fill-opacity:1;fill-rule:nonzero;stroke:none"
                    d="M 8,24 H 4 v 4 h 4 z m 2,8 H 2 C 0.896,32 0,31.105 0,30 v -8 c 0,-1.104 0.896,-2 2,-2 h 8 c 1.105,0 2,0.896 2,2 v 8 c 0,1.105 -0.895,2 -2,2" /><path
                    id="path34"
                    style="fill:#373535;fill-opacity:1;fill-rule:nonzero;stroke:none"
                    d="M 8,44 H 4 v 4 h 4 z m 2,8 H 2 C 0.896,52 0,51.105 0,50 v -8 c 0,-1.104 0.896,-2 2,-2 h 8 c 1.105,0 2,0.896 2,2 v 8 c 0,1.105 -0.895,2 -2,2" /><path
                    id="path36"
                    style="fill:#373535;fill-opacity:1;fill-rule:nonzero;stroke:none"
                    d="M 8,4 H 4 v 4 h 4 z m 2,8 H 2 C 0.896,12 0,11.105 0,10 V 2 C 0,0.895 0.896,0 2,0 h 8 c 1.105,0 2,0.895 2,2 v 8 c 0,1.105 -0.895,2 -2,2" /></g></g></g></svg>
        </symbol>
        <symbol id="icon2">
            <?xml version="1.0" encoding="UTF-8" standalone="no"?>
            <svg
            xmlns:dc="http://purl.org/dc/elements/1.1/"
            xmlns:cc="http://creativecommons.org/ns#"
            xmlns:rdf="http://www.w3.org/1999/02/22-rdf-syntax-ns#"
            xmlns:svg="http://www.w3.org/2000/svg"
            xmlns="http://www.w3.org/2000/svg"
            viewBox="0 0 45.332401 85.333336"
            height="85.333336"
            width="45.332401"
            xml:space="preserve"
            id="svg2"
            version="1.1"><metadata
                id="metadata8"><rdf:RDF><cc:Work
                    rdf:about=""><dc:format>image/svg+xml</dc:format><dc:type
                    rdf:resource="http://purl.org/dc/dcmitype/StillImage" /></cc:Work></rdf:RDF></metadata><defs
                id="defs6"><clipPath
                id="clipPath18"
                clipPathUnits="userSpaceOnUse"><path
                    id="path16"
                    d="M 0,64 H 33.999 V 0 H 0 Z" /></clipPath></defs><g
                transform="matrix(1.3333333,0,0,-1.3333333,0,85.333333)"
                id="g10"><g
                id="g12"><g
                    clip-path="url(#clipPath18)"
                    id="g14"><g
                    transform="translate(7.0143,24)"
                    id="g20"><path
                        id="path22"
                        style="fill:#373535;fill-opacity:1;fill-rule:nonzero;stroke:none"
                        d="m 0,0 h 3.831 c 0.597,0 1.162,-0.267 1.542,-0.727 0.38,-0.459 0.534,-1.065 0.422,-1.651 L 3.462,-14.513 16.8,2 h -2.565 c -0.722,0 -1.389,0.391 -1.744,1.021 -0.353,0.63 -0.34,1.402 0.036,2.02 L 20.425,18 h -5.44 c -0.709,0 -1.364,0.375 -1.723,0.985 -0.36,0.612 -0.368,1.367 -0.025,1.987 L 21.587,36 H 3.485 L -2.349,16 h 6.084 c 0.67,0 1.296,-0.336 1.666,-0.895 0.372,-0.558 0.438,-1.265 0.177,-1.882 z m -0.016,-24 c -0.284,0 -0.571,0.061 -0.84,0.186 -0.833,0.386 -1.295,1.291 -1.123,2.192 L 1.409,-4 h -4.424 c -0.669,0 -1.296,0.336 -1.666,0.895 -0.371,0.558 -0.437,1.265 -0.176,1.882 L 0.721,12 h -5.736 c -0.628,0 -1.222,0.297 -1.599,0.8 -0.378,0.504 -0.496,1.156 -0.32,1.76 l 7,24 C 0.314,39.413 1.097,40 1.985,40 h 23 c 0.709,0 1.365,-0.375 1.724,-0.985 0.359,-0.612 0.368,-1.367 0.024,-1.987 L 18.384,22 h 5.601 c 0.723,0 1.39,-0.391 1.745,-1.02 0.353,-0.631 0.339,-1.403 -0.037,-2.021 L 17.796,6 h 3.189 C 21.756,6 22.458,5.558 22.79,4.862 23.122,4.167 23.025,3.343 22.541,2.743 l -21,-26 C 1.151,-23.738 0.575,-24 -0.016,-24" /></g></g></g></g></svg>
        </symbol>
        <symbol id="icon3">
            <?xml version="1.0" encoding="UTF-8" standalone="no"?>
            <svg
            xmlns:dc="http://purl.org/dc/elements/1.1/"
            xmlns:cc="http://creativecommons.org/ns#"
            xmlns:rdf="http://www.w3.org/1999/02/22-rdf-syntax-ns#"
            xmlns:svg="http://www.w3.org/2000/svg"
            xmlns="http://www.w3.org/2000/svg"
            viewBox="0 0 85.333336 80"
            height="80"
            width="85.333336"
            xml:space="preserve"
            id="svg2"
            version="1.1"><metadata
                id="metadata8"><rdf:RDF><cc:Work
                    rdf:about=""><dc:format>image/svg+xml</dc:format><dc:type
                    rdf:resource="http://purl.org/dc/dcmitype/StillImage" /></cc:Work></rdf:RDF></metadata><defs
                id="defs6"><clipPath
                id="clipPath18"
                clipPathUnits="userSpaceOnUse"><path
                    id="path16"
                    d="M 0,60 H 64 V 0 H 0 Z" /></clipPath></defs><g
                transform="matrix(1.3333333,0,0,-1.3333333,0,80)"
                id="g10"><g
                id="g12"><g
                    clip-path="url(#clipPath18)"
                    id="g14"><g
                    transform="translate(62,4)"
                    id="g20"><path
                        id="path22"
                        style="fill:#373535;fill-opacity:1;fill-rule:nonzero;stroke:none"
                        d="m 0,0 h -60 c -1.104,0 -2,-0.896 -2,-2 0,-1.105 0.896,-2 2,-2 H 0 c 1.105,0 2,0.895 2,2 0,1.104 -0.895,2 -2,2" /></g><g
                    transform="translate(6,31.998)"
                    id="g24"><path
                        id="path26"
                        style="fill:#373535;fill-opacity:1;fill-rule:nonzero;stroke:none"
                        d="M 0,0 C 1.104,0 2,-0.896 2,-2 2,-2.492 1.814,-2.938 1.52,-3.285 L 0.711,-3.863 C 0.49,-3.947 0.252,-4 0,-4 c -1.103,0 -2,0.898 -2,2 0,1.104 0.897,2 2,2 m 12,-22 c -1.103,0 -2,0.898 -2,2 0,0.492 0.186,0.938 0.482,1.287 l 0.807,0.576 C 11.512,-18.051 11.75,-18 12,-18 c 1.104,0 2,-0.896 2,-2 0,-1.102 -0.896,-2 -2,-2 m 12,40.002 c 1.104,0 2,-0.898 2,-2 0,-1.104 -0.896,-2 -2,-2 -1.103,0 -2,0.896 -2,2 0,1.102 0.897,2 2,2 m 28,6 c 1.104,0 2,-0.898 2,-2 0,-1.104 -0.896,-2 -2,-2 -1.103,0 -2,0.896 -2,2 0,1.102 0.897,2 2,2 m -14,-30 c -1.103,0 -2,0.896 -2,2 0,1.102 0.897,2 2,2 1.104,0 2,-0.898 2,-2 0,-1.104 -0.896,-2 -2,-2 M 0,-8 c 0.445,0 0.879,0.053 1.296,0.145 l 6.013,-8.416 C 6.492,-17.295 6,-18.59 6,-20 c 0,-3.309 2.691,-6 6,-6 3.309,0 6,2.691 6,6 0,1.689 -0.704,3.217 -1.832,4.307 l 7.348,25.718 c 0.16,-0.011 0.321,-0.023 0.484,-0.023 0.465,0 0.914,0.059 1.349,0.158 L 33.271,-0.318 C 32.479,-1.336 32,-2.611 32,-3.998 c 0,-3.309 2.691,-6 6,-6 3.309,0 6,2.691 6,6 0,1.473 -0.535,2.82 -1.418,3.865 l 8.293,16.244 c 0.365,-0.07 0.74,-0.109 1.125,-0.109 3.309,0 6,2.691 6,6 0,3.309 -2.691,6 -6,6 -3.309,0 -6,-2.691 -6,-6 0,-1.473 0.535,-2.82 1.418,-3.865 L 39.125,1.893 C 38.76,1.961 38.385,2.002 38,2.002 37.537,2.002 37.086,1.943 36.652,1.844 L 28.73,12.322 c 0.793,1.018 1.27,2.291 1.27,3.68 0,3.309 -2.691,6 -6,6 -3.309,0 -6,-2.691 -6,-6 0,-1.689 0.705,-3.217 1.832,-4.307 L 12.484,-14.023 C 12.324,-14.012 12.164,-14 12,-14 c -0.445,0 -0.877,-0.053 -1.295,-0.145 L 4.693,-5.729 C 5.51,-4.703 6,-3.408 6,-2 6,1.309 3.309,4 0,4 -3.309,4 -6,1.309 -6,-2 c 0,-3.309 2.691,-6 6,-6" /></g></g></g></g></svg>
        </symbol>
        <symbol id="icon4">
                <?xml version="1.0" encoding="UTF-8" standalone="no"?>
                <svg
                xmlns:dc="http://purl.org/dc/elements/1.1/"
                xmlns:cc="http://creativecommons.org/ns#"
                xmlns:rdf="http://www.w3.org/1999/02/22-rdf-syntax-ns#"
                xmlns:svg="http://www.w3.org/2000/svg"
                xmlns="http://www.w3.org/2000/svg"
                viewBox="0 0 85.333336 77.333336"
                height="77.333336"
                width="85.333336"
                xml:space="preserve"
                id="svg2"
                version="1.1"><metadata
                    id="metadata8"><rdf:RDF><cc:Work
                        rdf:about=""><dc:format>image/svg+xml</dc:format><dc:type
                        rdf:resource="http://purl.org/dc/dcmitype/StillImage" /></cc:Work></rdf:RDF></metadata><defs
                    id="defs6"><clipPath
                    id="clipPath18"
                    clipPathUnits="userSpaceOnUse"><path
                        id="path16"
                        d="M 0,58 H 64 V 0 H 0 Z" /></clipPath></defs><g
                    transform="matrix(1.3333333,0,0,-1.3333333,0,77.333333)"
                    id="g10"><g
                    id="g12"><g
                        clip-path="url(#clipPath18)"
                        id="g14"><g
                        transform="translate(34.123,12.873)"
                        id="g20"><path
                            id="path22"
                            style="fill:#373535;fill-opacity:1;fill-rule:nonzero;stroke:none"
                            d="m 0,0 c -1.17,-1.172 -3.072,-1.172 -4.242,0 -1.172,1.172 -1.172,3.074 0,4.245 C -3.072,5.418 -1.172,5.416 0,4.244 1.17,3.074 1.172,1.172 0,0 m -0.123,8.834 v 16.299 c -0.002,1.096 -0.898,1.987 -2,1.988 -1.104,0 -2.002,-0.892 -2,-1.988 L -4.121,8.834 c -1.08,-0.321 -2.098,-0.908 -2.951,-1.761 -2.733,-2.735 -2.735,-7.168 0,-9.903 2.736,-2.734 7.17,-2.731 9.9,10e-4 2.733,2.733 2.734,7.168 0,9.902 -0.853,0.853 -1.871,1.44 -2.951,1.761" /></g><g
                        transform="translate(32,44)"
                        id="g24"><path
                            id="path26"
                            style="fill:#373535;fill-opacity:1;fill-rule:nonzero;stroke:none"
                            d="M 0,0 C 1.105,0 2,0.896 2,2 V 6 C 2,7.105 1.105,8 0,8 -1.104,8 -2,7.105 -2,6 V 2 C -2,0.896 -1.104,0 0,0" /></g><g
                        transform="translate(12,28)"
                        id="g28"><path
                            id="path30"
                            style="fill:#373535;fill-opacity:1;fill-rule:nonzero;stroke:none"
                            d="m 0,0 h -4 c -1.104,0 -2,-0.895 -2,-2 0,-1.104 0.896,-2 2,-2 h 4 c 1.105,0 2,0.896 2,2 0,1.105 -0.895,2 -2,2" /></g><g
                        transform="translate(56,28)"
                        id="g32"><path
                            id="path34"
                            style="fill:#373535;fill-opacity:1;fill-rule:nonzero;stroke:none"
                            d="m 0,0 h -4 c -1.104,0 -2,-0.895 -2,-2 0,-1.104 0.896,-2 2,-2 h 4 c 1.105,0 2,0.896 2,2 0,1.105 -0.895,2 -2,2" /></g><g
                        transform="translate(50.3848,44.3848)"
                        id="g36"><path
                            id="path38"
                            style="fill:#373535;fill-opacity:1;fill-rule:nonzero;stroke:none"
                            d="m 0,0 c -0.781,0.781 -2.047,0.781 -2.828,0.001 l -2.828,-2.829 c -0.781,-0.781 -0.781,-2.047 -0.002,-2.828 0.39,-0.391 0.904,-0.586 1.416,-0.586 0.512,0 1.023,0.195 1.414,0.586 L 0,-2.828 C 0.781,-2.047 0.781,-0.781 0,0" /></g><g
                        transform="translate(16.4434,44.3848)"
                        id="g40"><path
                            id="path42"
                            style="fill:#373535;fill-opacity:1;fill-rule:nonzero;stroke:none"
                            d="m 0,0 c -0.781,0.781 -2.049,0.781 -2.83,0 -0.779,-0.781 -0.779,-2.047 0.002,-2.828 L 0,-5.656 c 0.391,-0.391 0.902,-0.586 1.414,-0.586 0.512,0 1.024,0.195 1.414,0.586 0.781,0.781 0.781,2.047 0,2.828 z" /></g><g
                        transform="translate(49.3203,4)"
                        id="g44"><path
                            id="path46"
                            style="fill:#373535;fill-opacity:1;fill-rule:nonzero;stroke:none"
                            d="m 0,0 h -34.641 c -6.797,5.35 -10.679,13.33 -10.679,22 0,15.439 12.56,28 28,28 15.439,0 28,-12.561 28,-28 C 10.68,13.33 6.797,5.35 0,0 m -17.32,54 c -17.645,0 -32,-14.355 -32,-32 0,-10.158 4.666,-19.488 12.799,-25.6 0.345,-0.259 0.767,-0.4 1.201,-0.4 h 36 c 0.433,0 0.855,0.141 1.201,0.4 8.135,6.112 12.799,15.442 12.799,25.6 0,17.645 -14.356,32 -32,32" /></g></g></g></g></svg>
        </symbol>
        <symbol id="icon5">
            <?xml version="1.0" encoding="UTF-8" standalone="no"?>
            <svg
            xmlns:dc="http://purl.org/dc/elements/1.1/"
            xmlns:cc="http://creativecommons.org/ns#"
            xmlns:rdf="http://www.w3.org/1999/02/22-rdf-syntax-ns#"
            xmlns:svg="http://www.w3.org/2000/svg"
            xmlns="http://www.w3.org/2000/svg"
            viewBox="0 0 85.315063 38.666668"
            height="38.666668"
            width="85.315063"
            xml:space="preserve"
            id="svg2"
            version="1.1"><metadata
                id="metadata8"><rdf:RDF><cc:Work
                    rdf:about=""><dc:format>image/svg+xml</dc:format><dc:type
                    rdf:resource="http://purl.org/dc/dcmitype/StillImage" /></cc:Work></rdf:RDF></metadata><defs
                id="defs6"><clipPath
                id="clipPath18"
                clipPathUnits="userSpaceOnUse"><path
                    id="path16"
                    d="M 0,29 H 63.986 V 0 H 0 Z" /></clipPath></defs><g
                transform="matrix(1.3333333,0,0,-1.3333333,0,38.666667)"
                id="g10"><g
                id="g12"><g
                    clip-path="url(#clipPath18)"
                    id="g14"><g
                    transform="translate(59.753,24.752)"
                    id="g20"><path
                        id="path22"
                        style="fill:#373535;fill-opacity:1;fill-rule:nonzero;stroke:none"
                        d="m 0,0 c -2.735,2.74 -6.373,4.248 -10.241,4.248 -3.868,0 -7.506,-1.508 -10.241,-4.248 -0.002,-0.002 -0.004,-0.005 -0.006,-0.007 -0.002,-0.001 -0.003,-0.003 -0.004,-0.004 l -17.375,-17.665 c 0,-0.001 0,-0.002 -0.001,-0.002 -1.98,-1.982 -4.611,-3.074 -7.41,-3.074 -2.8,0 -5.431,1.092 -7.411,3.074 -4.088,4.095 -4.088,10.758 0,14.853 1.98,1.981 4.611,3.073 7.411,3.073 2.799,0 5.43,-1.092 7.411,-3.073 0.012,-0.013 0.026,-0.021 0.039,-0.032 0.012,-0.012 0.021,-0.028 0.035,-0.039 l 3.692,-3.339 c 0.383,-0.347 0.863,-0.517 1.341,-0.517 0.545,0 1.09,0.223 1.485,0.658 0.74,0.821 0.676,2.084 -0.143,2.825 L -35.11,0.07 c -0.006,0.006 -0.013,0.009 -0.019,0.014 -2.725,2.684 -6.322,4.164 -10.149,4.164 -3.868,0 -7.506,-1.508 -10.242,-4.247 -5.644,-5.653 -5.644,-14.853 0,-20.505 2.736,-2.74 6.374,-4.248 10.242,-4.248 3.868,0 7.505,1.508 10.241,4.248 0.002,0.002 0.004,0.005 0.006,0.007 0.002,0.001 0.003,0.003 0.004,0.004 l 17.375,17.665 c 0,10e-4 0,0.002 0.001,0.002 1.979,1.982 4.61,3.074 7.41,3.074 2.8,0 5.43,-1.092 7.411,-3.074 4.088,-4.095 4.088,-10.758 0,-14.853 -1.981,-1.981 -4.611,-3.073 -7.411,-3.073 -2.8,0 -5.431,1.092 -7.411,3.073 -0.012,0.012 -0.026,0.019 -0.037,0.031 -0.013,0.012 -0.022,0.027 -0.036,0.04 l -3.693,3.339 c -0.818,0.742 -2.083,0.677 -2.824,-0.141 -0.741,-0.819 -0.678,-2.084 0.14,-2.825 l 3.694,-3.34 c 0.007,-0.007 0.015,-0.011 0.023,-0.018 2.723,-2.68 6.319,-4.159 10.144,-4.159 3.868,0 7.506,1.508 10.241,4.247 C 5.645,-14.852 5.645,-5.652 0,0" /></g></g></g></g></svg>
        </symbol>
    </defs>
</svg>